<svg width="36" height="37" viewBox="0 0 36 37" fill="none" xmlns="http://www.w3.org/2000/svg">
<g id="Handshake" clip-path="url(#clip0_342_1442)">
<path id="Vector" d="M30.375 19.712L33.8509 17.974C33.9846 17.9072 34.1035 17.8144 34.2009 17.7011C34.2983 17.5878 34.3722 17.4563 34.4182 17.3141C34.4642 17.172 34.4814 17.0221 34.4688 16.8732C34.4563 16.7244 34.4142 16.5795 34.345 16.447L30.8867 9.82403C30.7501 9.56258 30.5164 9.36521 30.2358 9.2744C29.9552 9.1836 29.6501 9.20662 29.3863 9.33853L25.875 11.0942L30.375 19.712ZM30.375 19.712L28.125 22.3442L22.9504 27.5188C22.813 27.6561 22.6424 27.7556 22.4552 27.8075C22.268 27.8593 22.0705 27.8618 21.8821 27.8147L13.7319 25.7771C13.579 25.7389 13.4359 25.669 13.3117 25.572L5.625 19.5612M5.625 19.5612L2.14908 17.8233C2.01545 17.7565 1.89647 17.6637 1.79908 17.5504C1.70169 17.4371 1.62784 17.3056 1.58184 17.1634C1.53585 17.0213 1.51862 16.8714 1.53118 16.7225C1.54373 16.5736 1.58582 16.4288 1.65497 16.2963L5.11335 9.67331C5.24987 9.41186 5.4836 9.21449 5.76422 9.12368C6.04484 9.03287 6.34989 9.0559 6.6137 9.1878L10.125 10.9435L5.625 19.5612Z" stroke="white" stroke-linecap="round" stroke-linejoin="round"/>
<path id="Vector_2" d="M28.125 22.3442L21.9375 17.8442L20.1375 19.1942C19.3586 19.7784 18.4112 20.0942 17.4375 20.0942C16.4638 20.0942 15.5164 19.7784 14.7375 19.1942L13.9752 18.6225C13.8463 18.5258 13.7396 18.4025 13.6625 18.2609C13.5853 18.1194 13.5395 17.963 13.528 17.8022C13.5166 17.6414 13.5399 17.4801 13.5962 17.3291C13.6526 17.1781 13.7407 17.0409 13.8547 16.927L19.358 11.4237C19.4625 11.3192 19.5865 11.2363 19.723 11.1798C19.8595 11.1233 20.0058 11.0942 20.1535 11.0942H25.875" stroke="white" stroke-linecap="round" stroke-linejoin="round"/>
<path id="Vector_3" d="M10.2058 10.9435L17.4226 8.83952C17.6804 8.76436 17.9566 8.7839 18.2013 8.8946L23.0625 11.0942M15.75 30.7817L11.5116 29.7221C11.3396 29.6791 11.1803 29.5961 11.0465 29.4798L7.875 26.723" stroke="white" stroke-linecap="round" stroke-linejoin="round"/>
</g>
<defs>
<clipPath id="clip0_342_1442">
<rect width="36" height="36" fill="white" transform="translate(0 0.848022)"/>
</clipPath>
</defs>
</svg>
