<svg width="34" height="33" viewBox="0 0 34 33" fill="none" xmlns="http://www.w3.org/2000/svg">
<g id="innovation">
<g id="Group">
<path id="Vector" d="M12.293 28.3286L21.7069 28.3324M20.4751 28.3324C20.4751 25.5648 21.8288 23.0226 23.9934 21.2977C26.7629 19.0911 28.4662 15.6039 28.2092 11.7366C27.8348 6.10944 23.1703 1.54402 17.5369 1.28192C11.0879 0.981748 5.76538 6.1215 5.76538 12.5038C5.76538 16.1091 7.46552 19.3215 10.1087 21.3783C12.2569 23.0499 13.5248 25.6074 13.5248 28.3286L20.4751 28.3324Z" stroke="white" stroke-miterlimit="10" stroke-linecap="round" stroke-linejoin="round"/>
<path id="Vector_2" d="M12.3013 13.3948L15.4801 16.5736L22.4469 9.6068M20.4002 28.3305C20.4002 29.2323 20.042 30.0972 19.4043 30.7349C18.7666 31.3725 17.9018 31.7308 17 31.7308C16.0982 31.7308 15.2333 31.3725 14.5956 30.7349C13.9579 30.0972 13.5997 29.2323 13.5997 28.3305" stroke="white" stroke-miterlimit="10" stroke-linecap="round" stroke-linejoin="round"/>
</g>
</g>
</svg>
