<svg width="40" height="39" viewBox="0 0 40 39" fill="none" xmlns="http://www.w3.org/2000/svg">
<g id="Target" clip-path="url(#clip0_401_1184)">
<path id="Vector" d="M20 19.5L34.625 4.875" stroke="white" stroke-linecap="round" stroke-linejoin="round"/>
<path id="Vector_2" d="M30.3415 9.15857C27.7508 6.57301 24.284 5.05399 20.6271 4.90201C16.9701 4.75004 13.3892 5.97619 10.593 8.33789C7.79673 10.6996 5.98874 14.0248 5.52671 17.6556C5.06467 21.2865 5.98225 24.9585 8.0979 27.9453C10.2136 30.932 13.3732 33.0159 16.9517 33.7847C20.5302 34.5534 24.2669 33.9511 27.4225 32.0967C30.5782 30.2424 32.9229 27.2712 33.9928 23.7709C35.0628 20.2707 34.7799 16.4963 33.2004 13.1946M25.1707 14.3293C23.9618 13.1204 22.3675 12.3733 20.6649 12.2179C18.9623 12.0626 17.2591 12.5087 15.8512 13.4787C14.4434 14.4488 13.42 15.8815 12.9589 17.5278C12.4978 19.1741 12.6281 20.93 13.3273 22.4902C14.0264 24.0504 15.2501 25.3163 16.7857 26.0678C18.3213 26.8194 20.0717 27.0092 21.7327 26.6041C23.3937 26.1991 24.8603 25.2248 25.8775 23.8507C26.8947 22.4766 27.3983 20.7894 27.3007 19.0825" stroke="white" stroke-linecap="round" stroke-linejoin="round"/>
</g>
<defs>
<clipPath id="clip0_401_1184">
<rect width="39" height="39" fill="white" transform="translate(0.5)"/>
</clipPath>
</defs>
</svg>
